<?xml version="1.0" encoding="UTF-8" standalone="no"?>
<!-- Created with Inkscape (http://www.inkscape.org/) -->

<svg
   xmlns:dc="http://purl.org/dc/elements/1.1/"
   xmlns:cc="http://creativecommons.org/ns#"
   xmlns:rdf="http://www.w3.org/1999/02/22-rdf-syntax-ns#"
   xmlns:svg="http://www.w3.org/2000/svg"
   xmlns="http://www.w3.org/2000/svg"
   xmlns:sodipodi="http://sodipodi.sourceforge.net/DTD/sodipodi-0.dtd"
   xmlns:inkscape="http://www.inkscape.org/namespaces/inkscape"
   id="svg2"
   version="1.1"
   inkscape:version="0.48.5 r10040"
   width="763.40491"
   height="274.27661"
   xml:space="preserve"
   sodipodi:docname="logo.svg"><metadata
     id="metadata8"><rdf:RDF><cc:Work
         rdf:about=""><dc:format>image/svg+xml</dc:format><dc:type
           rdf:resource="http://purl.org/dc/dcmitype/StillImage" /><dc:title></dc:title></cc:Work></rdf:RDF></metadata><defs
     id="defs6"><clipPath
       clipPathUnits="userSpaceOnUse"
       id="clipPath16"><path
         d="m 0,817.608 625.313,0 L 625.313,0 0,0 0,817.608 z"
         id="path18"
         inkscape:connector-curvature="0" /></clipPath><clipPath
       clipPathUnits="userSpaceOnUse"
       id="clipPath24"><path
         d="m 2.90625,813.374 622.40675,0 0,-622.415 -622.40675,0 0,622.415 z"
         id="path26"
         inkscape:connector-curvature="0" /></clipPath><clipPath
       clipPathUnits="userSpaceOnUse"
       id="clipPath152"><path
         d="m 0,817.608 625.313,0 L 625.313,0 0,0 0,817.608 z"
         id="path154"
         inkscape:connector-curvature="0" /></clipPath></defs><sodipodi:namedview
     pagecolor="#ffffff"
     bordercolor="#666666"
     borderopacity="1"
     objecttolerance="10"
     gridtolerance="10"
     guidetolerance="10"
     inkscape:pageopacity="0"
     inkscape:pageshadow="2"
     inkscape:window-width="1366"
     inkscape:window-height="720"
     id="namedview4"
     showgrid="false"
     inkscape:zoom="0.65313333"
     inkscape:cx="513.09378"
     inkscape:cy="62.720752"
     inkscape:window-x="0"
     inkscape:window-y="0"
     inkscape:window-maximized="1"
     inkscape:current-layer="g10"
     fit-margin-bottom="-0.1"
     fit-margin-top="0"
     fit-margin-left="0"
     fit-margin-right="0" /><g
     id="g10"
     inkscape:groupmode="layer"
     inkscape:label="logo"
     transform="matrix(1.25,0,0,-1.25,-130.56255,549.38544)"><g
       id="g4184"
       transform="translate(2.4497292,1.2248651)"><g
         transform="translate(52.669185,28.171892)"
         id="g3983"><g
           id="g3151"><g
             transform="matrix(0.3515376,0,0,0.3515376,48.654575,123.82967)"
             id="g12"><g
               clip-path="url(#clipPath16)"
               id="g14"><g
                 id="g20"><g
                   id="g22" /><g
                   id="g28"><g
                     id="g30"
                     clip-path="url(#clipPath24)"><g
                       id="g32"
                       transform="translate(618.2939,522.0786)"><path
                         inkscape:connector-curvature="0"
                         id="path34"
                         style="fill:#083866;fill-opacity:1;fill-rule:nonzero;stroke:none"
                         d="m 0,0 c 9.359,-9.38 9.359,-24.56 0,-33.94 l -107.5,-107.48 c -9.36,-9.38 -24.561,-9.38 -33.94,0 l -51.9,51.9 47.94,46.38 c 5.299,-5.48 12.719,-8.88 20.94,-8.88 16.1,0 29.16,13.06 29.16,29.16 0,16.1 -13.06,29.16 -29.16,29.16 -7.8,0 -14.9,-3.06 -20.12,-8.06 l -51.8,54.3 54.94,54.94 c 9.379,9.38 24.58,9.38 33.94,0 L 0,0 z" /></g><g
                       id="g36"
                       transform="translate(493.834,528.3789)"><path
                         inkscape:connector-curvature="0"
                         id="path38"
                         style="fill:#00aeef;fill-opacity:1;fill-rule:nonzero;stroke:none"
                         d="m 0,0 c 16.1,0 29.16,-13.06 29.16,-29.16 0,-16.1 -13.06,-29.16 -29.16,-29.16 -8.221,0 -15.641,3.4 -20.94,8.88 L 0,-29.16 -20.12,-8.06 C -14.9,-3.06 -7.8,0 0,0" /></g><g
                       id="g40"
                       transform="translate(473.7139,520.3188)"><path
                         inkscape:connector-curvature="0"
                         id="path42"
                         style="fill:#231f20;fill-opacity:1;fill-rule:nonzero;stroke:none"
                         d="M 0,0 20.12,-21.1 -0.82,-41.38 c -5.1,5.24 -8.22,12.4 -8.22,20.28 0,8.3 3.46,15.78 9.04,21.1" /></g><g
                       id="g44"
                       transform="translate(473.7139,520.3188)"><path
                         inkscape:connector-curvature="0"
                         id="path46"
                         style="fill:#083866;fill-opacity:1;fill-rule:nonzero;stroke:none"
                         d="m 0,0 c -5.58,-5.32 -9.04,-12.8 -9.04,-21.1 0,-7.88 3.12,-15.04 8.22,-20.28 l -47.94,-46.38 -55.58,55.58 c -9.36,9.38 -9.36,24.56 0,33.94 L -51.8,54.3 0,0 z" /></g><g
                       id="g48"
                       transform="translate(441.5137,698.8589)"><path
                         inkscape:connector-curvature="0"
                         id="path50"
                         style="fill:#28aae2;fill-opacity:1;fill-rule:nonzero;stroke:none"
                         d="m 0,0 c 9.36,-9.38 9.36,-24.56 0,-33.94 l -54.12,-54.12 -53.76,56.36 c 5.58,5.32 9.04,12.82 9.04,21.12 0,16.1 -13.06,29.16 -29.18,29.16 -16.1,0 -29.16,-13.06 -29.16,-29.16 0,-8.34 3.5,-15.86 9.1,-21.18 l -50.1,-52.9 -50.72,50.72 c -9.38,9.38 -9.38,24.56 0,33.94 l 107.48,107.48 c 9.36,9.38 24.56,9.38 33.94,0 L 0,0 z" /></g><g
                       id="g52"
                       transform="translate(435.6133,339.4189)"><path
                         inkscape:connector-curvature="0"
                         id="path54"
                         style="fill:#28aae2;fill-opacity:1;fill-rule:nonzero;stroke:none"
                         d="m 0,0 c 9.381,-9.38 9.381,-24.58 0,-33.96 l -107.479,-107.48 c -9.38,-9.36 -24.561,-9.36 -33.94,0 l -107.48,107.48 c -9.381,9.38 -9.381,24.58 0,33.96 l 53.739,53.74 50.08,-50.1 c -5.279,-5.281 -8.54,-12.56 -8.54,-20.62 0,-16.1 13.06,-29.161 29.181,-29.161 16.1,0 29.159,13.061 29.159,29.161 0,7.9 -3.119,15.04 -8.22,20.28 L -52.579,52.58 0,0 z" /></g><g
                       id="g56"
                       transform="translate(333.6338,667.1587)"><path
                         inkscape:connector-curvature="0"
                         id="path58"
                         style="fill:#28aae2;fill-opacity:1;fill-rule:nonzero;stroke:none"
                         d="M 0,0 53.76,-56.36 0.4,-109.72 c -9.38,-9.38 -24.58,-9.38 -33.94,0 l -56.76,56.76 50.1,52.9 c 5.22,-4.96 12.28,-8 20.06,-8 C -12.32,-8.06 -5.22,-5 0,0" /></g><g
                       id="g60"
                       transform="translate(383.0342,391.9985)"><path
                         inkscape:connector-curvature="0"
                         id="path62"
                         style="fill:#28aae2;fill-opacity:1;fill-rule:nonzero;stroke:none"
                         d="m 0,0 -50.92,-49.28 c -5.301,5.481 -12.721,8.88 -20.94,8.88 -8.06,0 -15.341,-3.26 -20.62,-8.54 l -0.02,0 -50.081,50.1 53.741,53.74 c 9.38,9.36 24.56,9.36 33.94,0 L 0,0 z" /></g><g
                       id="g64"
                       transform="translate(313.4937,717.439)"><path
                         inkscape:connector-curvature="0"
                         id="path66"
                         style="fill:#083866;fill-opacity:1;fill-rule:nonzero;stroke:none"
                         d="m 0,0 c 16.12,0 29.18,-13.06 29.18,-29.16 0,-8.3 -3.46,-15.8 -9.04,-21.12 L 0,-29.16 -20.06,-50.34 c -5.6,5.32 -9.1,12.84 -9.1,21.18 C -29.16,-13.06 -16.1,0 0,0" /></g><g
                       id="g68"
                       transform="translate(313.4937,688.2788)"><path
                         inkscape:connector-curvature="0"
                         id="path70"
                         style="fill:#231f20;fill-opacity:1;fill-rule:nonzero;stroke:none"
                         d="m 0,0 20.14,-21.12 c -5.22,-5 -12.32,-8.06 -20.14,-8.06 -7.78,0 -14.84,3.04 -20.06,8 L 0,0 z" /></g><g
                       id="g72"
                       transform="translate(332.1138,342.7187)"><path
                         inkscape:connector-curvature="0"
                         id="path74"
                         style="fill:#083866;fill-opacity:1;fill-rule:nonzero;stroke:none"
                         d="m 0,0 c 5.1,-5.24 8.22,-12.38 8.22,-20.28 0,-16.1 -13.06,-29.16 -29.16,-29.16 -16.12,0 -29.18,13.06 -29.18,29.16 0,8.06 3.26,15.34 8.54,20.62 l 0.02,0 20.62,-20.62 L 0,0 z" /></g><g
                       id="g76"
                       transform="translate(332.1138,342.7187)"><path
                         inkscape:connector-curvature="0"
                         id="path78"
                         style="fill:#231f20;fill-opacity:1;fill-rule:nonzero;stroke:none"
                         d="M 0,0 -20.94,-20.28 -41.56,0.34 C -36.28,5.62 -29,8.88 -20.94,8.88 -12.72,8.88 -5.3,5.48 0,0" /></g><g
                       id="g80"
                       transform="translate(258.8335,516.1787)"><path
                         inkscape:connector-curvature="0"
                         id="path82"
                         style="fill:#083866;fill-opacity:1;fill-rule:nonzero;stroke:none"
                         d="m 0,0 c 9.38,-9.36 9.38,-24.56 0,-33.94 l -53.72,-53.74 -50.1,50.1 c 5.28,5.28 8.54,12.58 8.54,20.62 0,8.34 -3.5,15.86 -9.12,21.16 L -55.64,55.66 0,0 z" /></g><g
                       id="g84"
                       transform="translate(205.1138,428.4985)"><path
                         inkscape:connector-curvature="0"
                         id="path86"
                         style="fill:#083866;fill-opacity:1;fill-rule:nonzero;stroke:none"
                         d="m 0,0 -53.76,-53.74 c -9.36,-9.36 -24.56,-9.36 -33.94,0 L -195.18,53.74 c -9.38,9.38 -9.36,24.58 0,33.94 l 107.48,107.5 c 9.38,9.36 24.58,9.36 33.94,0 L -1.92,143.34 -50.68,91.88 c -5.22,4.96 -12.28,8 -20.04,8 -16.12,0 -29.18,-13.06 -29.18,-29.16 0,-16.1 13.06,-29.16 29.18,-29.16 8.04,0 15.34,3.26 20.62,8.54 L 0,0 z" /></g><g
                       id="g88"
                       transform="translate(154.4336,520.3789)"><path
                         inkscape:connector-curvature="0"
                         id="path90"
                         style="fill:#231f20;fill-opacity:1;fill-rule:nonzero;stroke:none"
                         d="M 0,0 C 5.62,-5.3 9.12,-12.82 9.12,-21.16 9.12,-29.2 5.86,-36.5 0.58,-41.78 L -20.04,-21.16 0,0 z" /></g><g
                       id="g92"
                       transform="translate(134.3936,499.2187)"><path
                         inkscape:connector-curvature="0"
                         id="path94"
                         style="fill:#00aeef;fill-opacity:1;fill-rule:nonzero;stroke:none"
                         d="M 0,0 20.62,-20.62 C 15.34,-25.9 8.04,-29.16 0,-29.16 c -16.12,0 -29.18,13.06 -29.18,29.16 0,16.1 13.06,29.16 29.18,29.16 7.76,0 14.82,-3.04 20.04,-8 L 0,0 z" /></g></g></g></g><g
                 transform="translate(387.3936,610.7988)"
                 id="g96"><path
                   inkscape:connector-curvature="0"
                   id="path98"
                   style="fill:none;stroke:#231f20;stroke-width:2;stroke-linecap:butt;stroke-linejoin:miter;stroke-miterlimit:10;stroke-opacity:1;stroke-dasharray:none"
                   d="m 0,0 -53.36,-53.36 c -9.38,-9.38 -24.58,-9.38 -33.94,0 l -56.76,56.76 -50.72,50.72 c -9.38,9.38 -9.38,24.56 0,33.94 L -87.3,195.54 c 9.36,9.38 24.56,9.38 33.94,0 L 54.12,88.06 c 9.36,-9.38 9.36,-24.56 0,-33.94 L 0,0 z" /></g><g
                 transform="translate(421.9141,574.6187)"
                 id="g100"><path
                   inkscape:connector-curvature="0"
                   id="path102"
                   style="fill:none;stroke:#231f20;stroke-width:2;stroke-linecap:butt;stroke-linejoin:miter;stroke-miterlimit:10;stroke-opacity:1;stroke-dasharray:none"
                   d="m 0,0 54.939,54.94 c 9.38,9.38 24.581,9.38 33.941,0 l 107.5,-107.48 c 4.92414,-4.935185 6.1733,-11.801199 5.91124,-18.25941 -5.7e-4,-0.01385 -0.001,-0.0277 -0.002,-0.04155 C 202.04825,-76.642034 200.8043,-82.04577 196.38,-86.48 L 88.88,-193.96 c -9.36,-9.38 -24.561,-9.38 -33.941,0 l -51.899,51.9 -55.58,55.58 c -9.36,9.38 -9.36,24.56 0,33.94 z"
                   sodipodi:nodetypes="csccssccscccc" /></g><g
                 transform="translate(205.1138,428.4985)"
                 id="g104"><path
                   inkscape:connector-curvature="0"
                   id="path106"
                   style="fill:none;stroke:#231f20;stroke-width:2;stroke-linecap:butt;stroke-linejoin:miter;stroke-miterlimit:10;stroke-opacity:1;stroke-dasharray:none"
                   d="m 0,0 -53.76,-53.74 c -9.36,-9.36 -24.56,-9.36 -33.94,0 L -195.18,53.74 c -9.38,9.38 -9.36,24.58 0,33.94 l 107.48,107.5 c 9.38,9.36 24.58,9.36 33.94,0 L -1.92,143.34 53.72,87.68 c 9.38,-9.36 9.38,-24.56 0,-33.94 L 0,0 z" /></g><g
                 transform="translate(383.0342,391.9985)"
                 id="g108"><path
                   inkscape:connector-curvature="0"
                   id="path110"
                   style="fill:none;stroke:#231f20;stroke-width:2;stroke-linecap:butt;stroke-linejoin:miter;stroke-miterlimit:10;stroke-opacity:1;stroke-dasharray:none"
                   d="m 0,0 52.579,-52.58 c 9.381,-9.379 9.381,-24.58 0,-33.96 L -54.9,-194.02 c -9.38,-9.359 -24.56,-9.359 -33.94,0 l -107.48,107.48 c -9.381,9.38 -9.381,24.581 0,33.96 l 53.739,53.74 53.741,53.74 c 9.38,9.36 24.56,9.36 33.94,0 L 0,0 z" /></g><g
                 transform="translate(155.0137,478.5986)"
                 id="g112"><path
                   inkscape:connector-curvature="0"
                   id="path114"
                   style="fill:none;stroke:#231f20;stroke-width:10;stroke-linecap:butt;stroke-linejoin:miter;stroke-miterlimit:10;stroke-opacity:1;stroke-dasharray:none"
                   d="m 0,0 50.1,-50.1 35.34,-35.34 50.08,-50.1" /></g><g
                 transform="translate(154.4336,520.3789)"
                 id="g116"><path
                   inkscape:connector-curvature="0"
                   id="path118"
                   style="fill:none;stroke:#231f20;stroke-width:10;stroke-linecap:butt;stroke-linejoin:miter;stroke-miterlimit:10;stroke-opacity:1;stroke-dasharray:none"
                   d="M 0,0 48.76,51.46 88.9,93.82 139,146.72" /></g><g
                 transform="translate(333.6338,667.1587)"
                 id="g120"><path
                   inkscape:connector-curvature="0"
                   id="path122"
                   style="fill:none;stroke:#231f20;stroke-width:10;stroke-linecap:butt;stroke-linejoin:miter;stroke-miterlimit:10;stroke-opacity:1;stroke-dasharray:none"
                   d="m 0,0 53.76,-56.36 34.52,-36.18 51.8,-54.3" /></g><g
                 transform="translate(472.8936,478.939)"
                 id="g124"><path
                   inkscape:connector-curvature="0"
                   id="path126"
                   style="fill:none;stroke:#231f20;stroke-width:10;stroke-linecap:butt;stroke-linejoin:miter;stroke-miterlimit:10;stroke-opacity:1;stroke-dasharray:none"
                   d="m 0,0 -47.939,-46.38 -41.92,-40.56 -50.921,-49.28" /></g><g
                 transform="translate(332.1138,342.7187)"
                 id="g128"><path
                   inkscape:connector-curvature="0"
                   id="path130"
                   style="fill:none;stroke:#231f20;stroke-width:2;stroke-linecap:butt;stroke-linejoin:miter;stroke-miterlimit:10;stroke-opacity:1;stroke-dasharray:none"
                   d="m 0,0 c 5.1,-5.24 8.22,-12.38 8.22,-20.28 0,-16.1 -13.06,-29.16 -29.16,-29.16 -16.12,0 -29.18,13.06 -29.18,29.16 0,8.06 3.26,15.34 8.54,20.62 l 0.02,0 C -36.28,5.62 -29,8.88 -20.94,8.88 -12.72,8.88 -5.3,5.48 0,0 z" /></g><g
                 transform="translate(473.7139,520.3188)"
                 id="g132"><path
                   inkscape:connector-curvature="0"
                   id="path134"
                   style="fill:none;stroke:#231f20;stroke-width:2;stroke-linecap:butt;stroke-linejoin:miter;stroke-miterlimit:10;stroke-opacity:1;stroke-dasharray:none"
                   d="m 0,0 c 5.22,5 12.32,8.06 20.12,8.06 16.1,0 29.16,-13.06 29.16,-29.16 0,-16.1 -13.06,-29.16 -29.16,-29.16 -8.221,0 -15.641,3.4 -20.94,8.88 -5.1,5.24 -8.22,12.4 -8.22,20.28 0,8.3 3.46,15.78 9.04,21.1 z" /></g><g
                 transform="translate(154.4336,520.3789)"
                 id="g136"><path
                   inkscape:connector-curvature="0"
                   id="path138"
                   style="fill:none;stroke:#231f20;stroke-width:2;stroke-linecap:butt;stroke-linejoin:miter;stroke-miterlimit:10;stroke-opacity:1;stroke-dasharray:none"
                   d="m 0,0 c 5.62,-5.3 9.12,-12.82 9.12,-21.16 0,-8.04 -3.26,-15.34 -8.54,-20.62 -5.28,-5.28 -12.58,-8.54 -20.62,-8.54 -16.12,0 -29.18,13.06 -29.18,29.16 C -49.22,-5.06 -36.16,8 -20.04,8 -12.28,8 -5.22,4.96 0,0 z" /></g><g
                 transform="translate(293.4336,667.0986)"
                 id="g140"><path
                   inkscape:connector-curvature="0"
                   id="path142"
                   style="fill:none;stroke:#231f20;stroke-width:2;stroke-linecap:butt;stroke-linejoin:miter;stroke-miterlimit:10;stroke-opacity:1;stroke-dasharray:none"
                   d="m 0,0 c -5.6,5.32 -9.1,12.84 -9.1,21.18 0,16.1 13.06,29.16 29.16,29.16 16.12,0 29.18,-13.06 29.18,-29.16 0,-8.3 -3.46,-15.8 -9.04,-21.12 C 34.98,-4.94 27.88,-8 20.06,-8 12.28,-8 5.22,-4.96 0,0 z" /></g></g></g></g><text
           transform="scale(1,-1)"
           id="text144"
           x="287.59842"
           y="-270.71176"
           style="font-size:9.38972472999999930px;font-style:normal;font-variant:normal;font-weight:normal;font-stretch:normal;font-family:Garuda;-inkscape-font-specification:Garuda;fill:#083866;fill-opacity:1"><tspan
             style="font-size:90.14135742000000562px;font-style:normal;font-variant:normal;font-weight:normal;font-stretch:normal;writing-mode:lr-tb;fill:#083866;fill-opacity:1;fill-rule:nonzero;stroke:none;font-family:Cantarell;-inkscape-font-specification:Cantarell"
             x="287.59842 355.58002 404.31271 435.01712 465.7215 514.64203 536.98956 585.72223 616.42664"
             y="-270.71176"
             sodipodi:role="line"
             id="tspan146">Norrbjörk</tspan></text>
</g></g></g></svg>